<svg xmlns="http://www.w3.org/2000/svg" xmlns:xlink="http://www.w3.org/1999/xlink" width="277.262" height="373.246" viewBox="0 0 277.262 373.246">
  <defs>
    <linearGradient id="linear-gradient" x1="0.224" y1="0.471" x2="1" y2="0.481" gradientUnits="objectBoundingBox">
      <stop offset="0" stop-color="#161622"/>
      <stop offset="1" stop-color="#1f1c2f"/>
    </linearGradient>
  </defs>
  <g id="Group_12411" data-name="Group 12411" transform="translate(12700.277 20858.736)">
    <rect id="Rectangle_7375" data-name="Rectangle 7375" width="373.246" height="277.261" transform="translate(-12423.015 -20858.736) rotate(90)" fill="url(#linear-gradient)"/>
    <path id="Path_49086" data-name="Path 49086" d="M26.54,55.769,36.82,6.708l-14.8,8.129L10.158,0,0,49.306Z" transform="translate(-12558.623 -20637.973) rotate(-173)" fill="#8e72db"/>
    <path id="Path_49085" data-name="Path 49085" d="M26.539,0,36.82,49.062l-14.8-8.129L10.158,55.769,0,6.464Z" transform="translate(-12569.789 -20692.559) rotate(-7)" fill="#6d4fc1"/>
    <path id="Path_49088" data-name="Path 49088" d="M-14195.98-20009.543l5.034-2.381,9.968,4.885,6.607-9.99,4.558-.369-1.621-4.4h-5.031l-5.474,7.922-9.007-4.168-6.738,3.58Z" transform="translate(1629.073 -670.454)" fill="#5b40a8"/>
    <path id="Path_49087" data-name="Path 49087" d="M-14199.846-20010.549l-5.533,2.592-5.534-8.9-3.533-.441,1.646-5.414h4.173l5.174,9.072,2.248-1.127Z" transform="translate(1632.943 -669.474)" fill="#7c63c1"/>
    <g id="Group_12385" data-name="Group 12385" transform="translate(-12596.844 -20750.582)">
      <path id="Path_49079" data-name="Path 49079" d="M259.249,256.376l9.337-4.783,5.7,8.811,10.478.526.526,10.478L294.1,277.1l-4.784,9.337,4.784,9.337-8.811,5.7-.526,10.478-10.478.526-5.7,8.811-9.337-4.783-9.337,4.783-5.7-8.811-10.478-.526-.526-10.478-8.811-5.7,4.783-9.337L224.4,277.1l8.811-5.694.526-10.478,10.478-.526,5.7-8.811Z" transform="translate(-224.402 -251.592)" fill="#2c2a43"/>
      <path id="Path_49080" data-name="Path 49080" d="M253.808,255.629l7.879-4.037,4.806,7.435,8.842.444.444,8.842,7.436,4.8L279.178,281l4.037,7.879-7.436,4.8-.444,8.842-8.842.444-4.806,7.435-7.879-4.037-7.879,4.037-4.8-7.435-8.842-.444-.444-8.842-7.435-4.8L228.439,281l-4.037-7.879,7.435-4.8.444-8.842,8.842-.444,4.8-7.435Z" transform="translate(-218.961 -246.15)" fill="#3a3757"/>
      <path id="Path_49081" data-name="Path 49081" d="M251.645,255.332l7.3-3.74,4.452,6.889,8.192.411.411,8.192,6.889,4.452-3.74,7.3,3.74,7.3L272,290.587l-.411,8.191-8.192.411-4.452,6.888-7.3-3.74-7.3,3.74-4.452-6.888-8.192-.411-.411-8.191-6.888-4.452,3.74-7.3-3.74-7.3,6.888-4.452.411-8.192,8.192-.411,4.452-6.889Z" transform="translate(-216.798 -243.986)" fill="#211f33"/>
    </g>
    <path id="Path_49130" data-name="Path 49130" d="M-1.411-14.649H-3.5l.468-5.052H6.355v-3.4H-6.463L-7.585-11.218h5.27c4.522,0,5.863,1.31,5.863,3.4,0,2.058-1.715,3.337-4.615,3.337A10.336,10.336,0,0,1-7.492-6.634l-1.715,3.15a13.647,13.647,0,0,0,8.2,2.526c5.863,0,8.638-3.181,8.638-7.017C7.633-11.842,5.045-14.649-1.411-14.649Z" transform="translate(-12561.203 -20703.254)" fill="#8e72db"/>
    <path id="Path_49168" data-name="Path 49168" d="M6.149-5.982,9.207-9.615V-11.18H.628v1.96h5.72l-2.86,3.4v1.6H4.638c1.907,0,2.734.737,2.734,1.871,0,1.169-.989,1.907-2.662,1.907A5.87,5.87,0,0,1,1.023-1.683L.016.133A7.91,7.91,0,0,0,4.746,1.59c3.381,0,4.982-1.835,4.982-3.957C9.729-4.255,8.523-5.676,6.149-5.982ZM12.66,1.536A1.463,1.463,0,0,0,14.135.043,1.441,1.441,0,0,0,12.66-1.45,1.441,1.441,0,0,0,11.185.043,1.463,1.463,0,0,0,12.66,1.536Zm8.022.054c3,0,5.27-2.338,5.27-6.475s-2.266-6.475-5.27-6.475c-2.986,0-5.252,2.338-5.252,6.475S17.7,1.59,20.682,1.59Zm0-2.032c-1.709,0-2.9-1.4-2.9-4.443s1.187-4.443,2.9-4.443c1.727,0,2.914,1.4,2.914,4.443S22.409-.442,20.682-.442Zm12.1,2.032c3,0,5.27-2.338,5.27-6.475s-2.266-6.475-5.27-6.475c-2.986,0-5.252,2.338-5.252,6.475S29.8,1.59,32.787,1.59Zm0-2.032c-1.709,0-2.9-1.4-2.9-4.443s1.187-4.443,2.9-4.443c1.727,0,2.914,1.4,2.914,4.443S34.513-.442,32.787-.442Zm12.1,2.032c3,0,5.27-2.338,5.27-6.475S47.9-11.36,44.891-11.36c-2.986,0-5.252,2.338-5.252,6.475S41.906,1.59,44.891,1.59Zm0-2.032c-1.709,0-2.9-1.4-2.9-4.443s1.187-4.443,2.9-4.443c1.727,0,2.914,1.4,2.914,4.443S46.618-.442,44.891-.442Zm18.49-4.533h-2.32c0,2.788-1.511,4.425-4.6,4.425h-.773V-4.363l4.586-2.428V-8.1l-4.586,2.41V-6.935l4.586-2.41v-1.331L55.683-8.248V-11.18h-2.3v4.137L51.492-6.036v1.313l1.889-.989v1.241l-1.889.989v1.331l1.889-1.007V1.41h2.572C60.881,1.41,63.4-1,63.381-4.975Z" transform="translate(-12593.344 -20595.211)" fill="#8e72db"/>
  </g>
</svg>
