<svg xmlns="http://www.w3.org/2000/svg" xmlns:xlink="http://www.w3.org/1999/xlink" width="277.262" height="373.246" viewBox="0 0 277.262 373.246">
  <defs>
    <linearGradient id="linear-gradient" x1="0.224" y1="0.471" x2="1" y2="0.481" gradientUnits="objectBoundingBox">
      <stop offset="0" stop-color="#161622"/>
      <stop offset="1" stop-color="#23203c"/>
    </linearGradient>
  </defs>
  <g id="Group_12414" data-name="Group 12414" transform="translate(24006.365 24088)">
    <g id="Group_12402" data-name="Group 12402" transform="translate(-10834.73 -3242.264)">
      <rect id="Rectangle_7358" data-name="Rectangle 7358" width="373.246" height="277.261" transform="translate(-12894.373 -20845.736) rotate(90)" fill="url(#linear-gradient)"/>
      <g id="Group_12090" data-name="Group 12090" transform="translate(-13066.14 -20752.213)" opacity="0.505">
        <path id="Path_49082" data-name="Path 49082" d="M1.729,18.3l4.717-4.717L1.729,8.873,5.3,5.3,0,0" transform="matrix(0.891, 0.454, -0.454, 0.891, 37.698, 0)" fill="none" stroke="#e8b064" stroke-width="3"/>
        <path id="Path_49083" data-name="Path 49083" d="M1.307,13.843l3.567-3.568L1.307,6.709l2.7-2.7L0,0" transform="matrix(-0.602, -0.799, 0.799, -0.602, 59.528, 25.537)" fill="none" stroke="#e8b064" stroke-width="3"/>
        <path id="Path_49084" data-name="Path 49084" d="M1.307,0,4.874,3.568,1.307,7.134l2.7,2.7L0,13.843" transform="matrix(0.602, -0.799, 0.799, 0.602, 0, 17.205)" fill="none" stroke="#e8b064" stroke-width="3"/>
      </g>
      <g id="Group_12385" data-name="Group 12385" transform="translate(-13066.347 -20723.916)">
        <path id="Path_49086" data-name="Path 49086" d="M25.826,54.269l10-47.742-14.4,7.91L9.885,0,0,47.98Z" transform="translate(37.193 109.579) rotate(-173)" fill="#463d79"/>
        <path id="Path_49085" data-name="Path 49085" d="M25.826,0l10,47.741-14.4-7.91L9.886,54.269,0,6.288Z" transform="translate(26.327 56.462) rotate(-7)" fill="#39306c"/>
        <path id="Path_49088" data-name="Path 49088" d="M-14196.026-20009.869l4.9-2.32,9.7,4.752,6.431-9.721,4.434-.355-1.578-4.289h-4.9l-5.327,7.711-8.763-4.057-6.559,3.486Z" transform="translate(14225.157 20078.561)" fill="#28214d"/>
        <path id="Path_49087" data-name="Path 49087" d="M-14200.239-20010.879l-5.385,2.523-5.385-8.658-3.438-.428,1.6-5.27h4.062l5.035,8.828,2.188-1.094Z" transform="translate(14229.375 20079.537)" fill="#3e366a"/>
        <g id="Group_12385-2" data-name="Group 12385">
          <path id="Path_49079" data-name="Path 49079" d="M258.312,256.247l9.086-4.655,5.541,8.574,10.2.512.512,10.2,8.574,5.541-4.655,9.086,4.655,9.086-8.574,5.541-.512,10.2-10.2.512-5.541,8.574-9.086-4.655-9.086,4.655-5.541-8.574-10.2-.512-.512-10.2-8.574-5.541,4.655-9.086-4.655-9.086,8.574-5.541.512-10.2,10.2-.512,5.541-8.574Z" transform="translate(-224.402 -251.592)" fill="#2c2a43"/>
          <path id="Path_49080" data-name="Path 49080" d="M253.017,255.52l7.667-3.928,4.676,7.236,8.6.432.432,8.6,7.235,4.676L277.7,280.2l3.928,7.667-7.235,4.676-.432,8.6-8.6.432-4.676,7.235-7.667-3.928-7.667,3.928-4.676-7.235-8.6-.432-.432-8.6-7.235-4.676,3.928-7.667L224.4,272.54l7.235-4.676.432-8.6,8.6-.432,4.676-7.236Z" transform="translate(-219.107 -246.297)" fill="#3a3757"/>
          <path id="Path_49081" data-name="Path 49081" d="M250.912,255.231l7.1-3.639,4.332,6.7,7.971.4.4,7.971,6.7,4.332-3.639,7.1,3.639,7.1-6.7,4.332-.4,7.971-7.971.4-4.332,6.7-7.1-3.639-7.1,3.639-4.332-6.7-7.971-.4-.4-7.971-6.7-4.332,3.639-7.1L224.4,271l6.7-4.332.4-7.971,7.971-.4,4.332-6.7Z" transform="translate(-217.002 -244.191)" fill="#211f33"/>
        </g>
        <path id="Path_49091" data-name="Path 49091" d="M-7.3-28v3.263h4.43V-7.046H1.022V-28Z" transform="translate(35.809 51.683)" fill="#e8b064"/>
      </g>
      <path id="Path_49165" data-name="Path 49165" d="M4.023-6.248l3.363-3.2c1.745-1.637,2.086-2.752,2.086-3.975,0-2.23-1.763-3.615-4.5-3.615A5.814,5.814,0,0,0,.192-14.954l1.637,1.259a3.553,3.553,0,0,1,2.95-1.313c1.547,0,2.338.665,2.338,1.817,0,.7-.216,1.439-1.439,2.608l-5,4.748V-4.27H9.958V-6.248Zm18.238-2.86h-2.23v-2.536H17.836v2.536H13.718l5.845-7.752h-2.5L10.858-8.748V-7.13h6.907v2.86h2.266V-7.13h2.23Zm2.752,4.964a1.463,1.463,0,0,0,1.475-1.493A1.441,1.441,0,0,0,25.013-7.13a1.441,1.441,0,0,0-1.475,1.493A1.463,1.463,0,0,0,25.013-4.144Zm8.022.054c3,0,5.27-2.338,5.27-6.475s-2.266-6.475-5.27-6.475c-2.986,0-5.252,2.338-5.252,6.475S30.049-4.09,33.035-4.09Zm0-2.032c-1.709,0-2.9-1.4-2.9-4.443s1.187-4.443,2.9-4.443c1.727,0,2.914,1.4,2.914,4.443S34.761-6.122,33.035-6.122Zm12.1,2.032c3,0,5.27-2.338,5.27-6.475s-2.266-6.475-5.27-6.475c-2.986,0-5.252,2.338-5.252,6.475S42.154-4.09,45.139-4.09Zm0-2.032c-1.709,0-2.9-1.4-2.9-4.443s1.187-4.443,2.9-4.443c1.727,0,2.914,1.4,2.914,4.443S46.866-6.122,45.139-6.122Zm12.1,2.032c3,0,5.27-2.338,5.27-6.475s-2.266-6.475-5.27-6.475c-2.986,0-5.252,2.338-5.252,6.475S54.258-4.09,57.244-4.09Zm0-2.032c-1.709,0-2.9-1.4-2.9-4.443s1.187-4.443,2.9-4.443c1.727,0,2.914,1.4,2.914,4.443S58.971-6.122,57.244-6.122Zm18.49-4.532h-2.32c0,2.788-1.511,4.425-4.6,4.425h-.773v-3.813l4.586-2.428v-1.313l-4.586,2.41v-1.241l4.586-2.41v-1.331l-4.586,2.428V-16.86h-2.3v4.137l-1.889,1.007V-10.4l1.889-.989v1.241l-1.889.989v1.331l1.889-1.007V-4.27h2.572C73.234-4.27,75.752-6.68,75.734-10.655Z" transform="translate(-13070.965 -20566.736)" fill="#e8b064"/>
    </g>
  </g>
</svg>
