<svg xmlns="http://www.w3.org/2000/svg" xmlns:xlink="http://www.w3.org/1999/xlink" width="277.262" height="373.246" viewBox="0 0 277.262 373.246">
  <defs>
    <linearGradient id="linear-gradient" x1="0.224" y1="0.471" x2="1" y2="0.481" gradientUnits="objectBoundingBox">
      <stop offset="0" stop-color="#161622"/>
      <stop offset="1" stop-color="#20232a"/>
    </linearGradient>
  </defs>
  <g id="Group_12410" data-name="Group 12410" transform="translate(12998.598 20858.736)">
    <rect id="Rectangle_7374" data-name="Rectangle 7374" width="373.246" height="277.261" transform="translate(-12721.335 -20858.736) rotate(90)" fill="url(#linear-gradient)"/>
    <path id="Path_49086" data-name="Path 49086" d="M26.878,56.479,37.288,6.794,22.3,15.026,10.288,0,0,49.934Z" transform="translate(-12856.904 -20632.223) rotate(-173)" fill="#718d6f"/>
    <path id="Path_49085" data-name="Path 49085" d="M26.877,0,37.288,49.686,22.3,41.454,10.287,56.479,0,6.546Z" transform="translate(-12868.213 -20687.506) rotate(-7)" fill="#4d6e4b"/>
    <path id="Path_49088" data-name="Path 49088" d="M-14195.96-20009.385l5.1-2.412,10.095,4.947,6.691-10.119,4.615-.373-1.642-4.459h-5.1l-5.544,8.021-9.12-4.219-6.825,3.625Z" transform="translate(1330.665 -665.395)" fill="#446243"/>
    <path id="Path_49087" data-name="Path 49087" d="M-14199.661-20010.395l-5.6,2.623-5.605-9.01-3.578-.447,1.667-5.482h4.226l5.241,9.188,2.276-1.143Z" transform="translate(1334.372 -664.413)" fill="#658163"/>
    <g id="Group_12385" data-name="Group 12385" transform="translate(-12895.611 -20746.266)">
      <path id="Path_49079" data-name="Path 49079" d="M259.693,256.436l9.456-4.844,5.767,8.923,10.611.533.533,10.611,8.923,5.767-4.844,9.456,4.844,9.456L286.06,302.1l-.533,10.611-10.611.533-5.767,8.923-9.456-4.844-9.456,4.844-5.767-8.923-10.611-.533-.533-10.611-8.923-5.767,4.844-9.456-4.844-9.456,8.923-5.767.533-10.611,10.611-.533,5.767-8.923Z" transform="translate(-224.402 -251.592)" fill="#2c2a43"/>
      <path id="Path_49080" data-name="Path 49080" d="M254.183,255.68l7.98-4.088,4.867,7.53,8.955.45.449,8.955,7.53,4.867-4.088,7.98,4.088,7.98-7.53,4.867-.449,8.955-8.955.45-4.867,7.53-7.98-4.088-7.98,4.088-4.867-7.53-8.955-.45-.45-8.955-7.53-4.867,4.088-7.98-4.088-7.98,7.53-4.867.45-8.955,8.955-.45,4.867-7.53Z" transform="translate(-218.892 -246.081)" fill="#3a3757"/>
      <path id="Path_49081" data-name="Path 49081" d="M251.992,255.379l7.393-3.787,4.509,6.976,8.3.417.416,8.3,6.976,4.509-3.787,7.393,3.787,7.393-6.976,4.509-.416,8.3-8.3.417-4.509,6.976-7.393-3.787-7.393,3.787L240.09,299.8l-8.3-.417-.416-8.3-6.976-4.509,3.787-7.393-3.787-7.393,6.976-4.509.416-8.3,8.3-.417,4.509-6.976Z" transform="translate(-216.701 -243.889)" fill="#211f33"/>
    </g>
    <path id="Path_49129" data-name="Path 49129" d="M10.228-9.293H6.256V-13.81H2.348v4.517H-4.988L5.423-23.1H.97L-10.082-8.653V-5.77h12.3V-.676H6.256V-5.77h3.972Z" transform="translate(-12860.809 -20698.629)" fill="#718d6f"/>
    <path id="Path_49169" data-name="Path 49169" d="M11.947-3.428H9.717V-5.964H7.523v2.536H3.4L9.249-11.18h-2.5L.544-3.068V-1.45H7.451V1.41H9.717V-1.45h2.23ZM14.7,1.536A1.463,1.463,0,0,0,16.174.043,1.441,1.441,0,0,0,14.7-1.45,1.441,1.441,0,0,0,13.224.043,1.463,1.463,0,0,0,14.7,1.536Zm8.022.054c3,0,5.27-2.338,5.27-6.475s-2.266-6.475-5.27-6.475c-2.986,0-5.252,2.338-5.252,6.475S19.735,1.59,22.721,1.59Zm0-2.032c-1.709,0-2.9-1.4-2.9-4.443s1.187-4.443,2.9-4.443c1.727,0,2.914,1.4,2.914,4.443S24.448-.442,22.721-.442Zm12.1,2.032c3,0,5.27-2.338,5.27-6.475s-2.266-6.475-5.27-6.475c-2.986,0-5.252,2.338-5.252,6.475S31.84,1.59,34.826,1.59Zm0-2.032c-1.709,0-2.9-1.4-2.9-4.443s1.187-4.443,2.9-4.443c1.727,0,2.914,1.4,2.914,4.443S36.552-.442,34.826-.442ZM46.93,1.59c3,0,5.27-2.338,5.27-6.475s-2.266-6.475-5.27-6.475c-2.986,0-5.252,2.338-5.252,6.475S43.944,1.59,46.93,1.59Zm0-2.032c-1.709,0-2.9-1.4-2.9-4.443s1.187-4.443,2.9-4.443c1.727,0,2.914,1.4,2.914,4.443S48.657-.442,46.93-.442ZM65.42-4.975H63.1c0,2.788-1.511,4.425-4.6,4.425h-.773V-4.363l4.586-2.428V-8.1l-4.586,2.41V-6.935l4.586-2.41v-1.331L57.722-8.248V-11.18h-2.3v4.137L53.531-6.036v1.313l1.889-.989v1.241l-1.889.989v1.331L55.42-3.158V1.41h2.572C62.92,1.41,65.438-1,65.42-4.975Z" transform="translate(-12892.949 -20588.736)" fill="#718d6f"/>
  </g>
</svg>
