<svg xmlns="http://www.w3.org/2000/svg" width="16.591" height="16.586" viewBox="0 0 16.591 16.586">
  <path d="M8.292,6.279a4.253,4.253,0,1,0,4.253,4.253A4.246,4.246,0,0,0,8.292,6.279Zm0,7.018a2.765,2.765,0,1,1,2.765-2.765A2.77,2.77,0,0,1,8.292,13.3ZM13.711,6.1a.992.992,0,1,1-.992-.992A.99.99,0,0,1,13.711,6.1Zm2.817,1.007a4.909,4.909,0,0,0-1.34-3.475A4.941,4.941,0,0,0,11.712,2.3c-1.369-.078-5.474-.078-6.844,0A4.934,4.934,0,0,0,1.393,3.632,4.925,4.925,0,0,0,.053,7.108c-.078,1.369-.078,5.474,0,6.844a4.909,4.909,0,0,0,1.34,3.475,4.947,4.947,0,0,0,3.475,1.34c1.369.078,5.474.078,6.844,0a4.909,4.909,0,0,0,3.475-1.34,4.941,4.941,0,0,0,1.34-3.475c.078-1.369.078-5.47,0-6.84Zm-1.769,8.309A2.8,2.8,0,0,1,13.181,17c-1.092.433-3.683.333-4.889.333s-3.8.1-4.889-.333a2.8,2.8,0,0,1-1.577-1.577c-.433-1.092-.333-3.683-.333-4.889s-.1-3.8.333-4.889A2.8,2.8,0,0,1,3.4,4.065c1.092-.433,3.683-.333,4.889-.333s3.8-.1,4.889.333a2.8,2.8,0,0,1,1.577,1.577c.433,1.092.333,3.683.333,4.889S15.191,14.332,14.758,15.421Z" transform="translate(0.005 -2.238)" fill="#fff" opacity="0.4"/>
</svg>
