
<svg version="1.1" id="Layer_1" xmlns="http://www.w3.org/2000/svg" 
	 width="30%" viewBox="0 0 750 750" enable-background="new 0 0 750 750" >
<path fill="#000000" opacity="0.000000" stroke="none" 
	d="
M498.000000,751.000000 
	C332.000000,751.000000 166.500000,751.000000 1.000000,751.000000 
	C1.000000,501.000000 1.000000,251.000000 1.000000,1.000000 
	C251.000000,1.000000 501.000000,1.000000 751.000000,1.000000 
	C751.000000,251.000000 751.000000,501.000000 751.000000,751.000000 
	C666.833313,751.000000 582.666687,751.000000 498.000000,751.000000 
M302.970001,268.792511 
	C274.832489,343.981659 246.694977,419.170837 218.292099,495.069061 
	C241.614243,495.069061 263.757904,495.069061 285.944611,495.825684 
	C263.561066,555.685242 241.177505,615.544739 218.721359,675.598389 
	C220.040787,675.818054 220.528488,675.970215 221.016235,675.970398 
	C271.832306,675.987122 322.648438,675.969849 373.464386,676.055908 
	C376.411041,676.060852 377.208801,674.686890 378.109222,672.231628 
	C386.437958,649.520996 394.888000,626.854370 403.393921,604.209229 
	C414.888214,573.608215 426.506500,543.053772 437.989777,512.448669 
	C447.520508,487.047516 456.881927,461.582825 466.410919,436.181030 
	C477.891998,405.575256 489.479248,375.009338 501.004944,344.420288 
	C510.858063,318.270111 520.738098,292.129822 530.457275,265.929901 
	C531.473267,263.191132 531.480103,260.078033 531.031372,257.027283 
	C509.366760,256.986481 487.702118,256.945679 466.028778,256.143219 
	C488.427338,196.309006 510.825897,136.474792 533.464294,75.999870 
	C530.967529,75.999870 529.180908,75.999878 527.394348,75.999878 
	C478.445801,75.999886 429.497284,75.997299 380.548737,76.009964 
	C378.722931,76.010437 376.897186,76.159271 374.141510,76.050369 
	C346.345062,76.050369 318.548615,76.050369 290.386475,76.050369 
	C266.491699,139.853165 242.612930,203.613297 218.490829,268.023102 
	C247.340866,268.023102 275.131927,268.023102 302.970001,268.792511 
z"/>
<path fill="#03989E" opacity="1.000000" stroke="none" 
	d="
M531.955139,257.138611 
	C531.480103,260.078033 531.473267,263.191132 530.457275,265.929901 
	C520.738098,292.129822 510.858063,318.270111 501.004944,344.420288 
	C489.479248,375.009338 477.891998,405.575256 466.410919,436.181030 
	C456.881927,461.582825 447.520508,487.047516 437.989777,512.448669 
	C426.506500,543.053772 414.888214,573.608215 403.393921,604.209229 
	C394.888000,626.854370 386.437958,649.520996 378.109222,672.231628 
	C377.208801,674.686890 376.411041,676.060852 373.464386,676.055908 
	C322.648438,675.969849 271.832306,675.987122 221.016235,675.970398 
	C220.528488,675.970215 220.040787,675.818054 218.721359,675.598389 
	C241.177505,615.544739 263.561066,555.685242 286.192688,495.217865 
	C287.328308,492.841522 288.387146,491.137299 289.078766,489.295197 
	C317.121063,414.605011 345.182251,339.921753 373.034698,265.160736 
	C375.041077,259.775238 377.685974,257.798553 383.526550,257.860687 
	C410.675659,258.149414 437.829956,257.948395 465.451935,257.940674 
	C485.983429,257.971436 506.045441,258.007904 526.107300,257.959320 
	C528.057251,257.954590 530.005859,257.424713 531.955139,257.138611 
z"/>
<path fill="#00C2CB" opacity="1.000000" stroke="none" 
	d="
M464.982422,257.922638 
	C437.829956,257.948395 410.675659,258.149414 383.526550,257.860687 
	C377.685974,257.798553 375.041077,259.775238 373.034698,265.160736 
	C345.182251,339.921753 317.121063,414.605011 289.078766,489.295197 
	C288.387146,491.137299 287.328308,492.841522 286.171143,494.839539 
	C263.757904,495.069061 241.614243,495.069061 218.292099,495.069061 
	C246.694977,419.170837 274.832489,343.981659 303.225708,268.194733 
	C304.301300,265.982025 305.283844,264.428253 305.917358,262.743286 
	C325.576996,210.456467 345.241547,158.171432 364.798492,105.846184 
	C368.454712,96.063789 371.658722,86.112381 375.071411,76.238968 
	C376.897186,76.159271 378.722931,76.010437 380.548737,76.009964 
	C429.497284,75.997299 478.445801,75.999886 527.394348,75.999878 
	C529.180908,75.999878 530.967529,75.999870 533.464294,75.999870 
	C510.825897,136.474792 488.427338,196.309006 465.831177,256.665588 
	C465.381561,257.401886 465.164490,257.646759 464.982422,257.922638 
z"/>
<path fill="#03989E" opacity="1.000000" stroke="none" 
	d="
M374.606476,76.144669 
	C371.658722,86.112381 368.454712,96.063789 364.798492,105.846184 
	C345.241547,158.171432 325.576996,210.456467 305.917358,262.743286 
	C305.283844,264.428253 304.301300,265.982025 303.202209,267.810028 
	C275.131927,268.023102 247.340866,268.023102 218.490829,268.023102 
	C242.612930,203.613297 266.491699,139.853165 290.386475,76.050369 
	C318.548615,76.050369 346.345062,76.050369 374.606476,76.144669 
z"/>
<path fill="#0080BF" opacity="1.000000" stroke="none" 
	d="
M465.451935,257.940674 
	C465.164490,257.646759 465.381561,257.401886 465.835571,257.046448 
	C487.702118,256.945679 509.366760,256.986481 531.493286,257.082947 
	C530.005859,257.424713 528.057251,257.954590 526.107300,257.959320 
	C506.045441,258.007904 485.983429,257.971436 465.451935,257.940674 
z"/>
</svg>