<svg xmlns="http://www.w3.org/2000/svg" xmlns:xlink="http://www.w3.org/1999/xlink" width="277.262" height="373.246" viewBox="0 0 277.262 373.246">
  <defs>
    <linearGradient id="linear-gradient" x1="0.224" y1="0.471" x2="1" y2="0.481" gradientUnits="objectBoundingBox">
      <stop offset="0" stop-color="#161622"/>
      <stop offset="1" stop-color="#232537"/>
    </linearGradient>
  </defs>
  <g id="Group_12408" data-name="Group 12408" transform="translate(13592.865 20858.736)">
    <rect id="Rectangle_7358" data-name="Rectangle 7358" width="373.246" height="277.261" transform="translate(-13315.604 -20858.736) rotate(90)" fill="url(#linear-gradient)"/>
    <g id="Group_12407" data-name="Group 12407" transform="translate(-13488.336 -20744.104)">
      <path id="Path_49086" data-name="Path 49086" d="M27.161,57.076,37.682,6.865l-15.148,8.32L10.4,0,0,50.462Z" transform="translate(39.117 115.247) rotate(-173)" fill="#656d9d"/>
      <path id="Path_49085" data-name="Path 49085" d="M27.161,0,37.682,50.211l-15.149-8.32L10.4,57.076,0,6.615Z" transform="translate(27.688 59.382) rotate(-7)" fill="#4f5681"/>
      <path id="Path_49088" data-name="Path 49088" d="M-14195.941-20009.254l5.153-2.437,10.2,5,6.762-10.221,4.664-.379-1.658-4.508h-5.15l-5.6,8.107-9.217-4.264-6.9,3.664Z" transform="translate(14226.579 20081.494)" fill="#454c74"/>
      <path id="Path_49087" data-name="Path 49087" d="M-14199.5-20010.266l-5.663,2.652-5.665-9.105-3.615-.451,1.685-5.541h4.271l5.3,9.285,2.3-1.152Z" transform="translate(14230.147 20082.477)" fill="#5a618d"/>
      <g id="Group_12385" data-name="Group 12385">
        <path id="Path_49079" data-name="Path 49079" d="M260.065,256.488l9.556-4.9,5.828,9.018,10.724.538.538,10.724,9.018,5.828-4.9,9.556,4.9,9.556-9.018,5.828-.538,10.724-10.724.538-5.828,9.018-9.556-4.9-9.556,4.9-5.828-9.018-10.723-.538-.538-10.724-9.018-5.828,4.9-9.556-4.9-9.556,9.018-5.828.538-10.724,10.723-.538,5.828-9.018Z" transform="translate(-224.402 -251.592)" fill="#2c2a43"/>
        <path id="Path_49080" data-name="Path 49080" d="M254.5,255.723l8.064-4.131,4.918,7.61,9.049.454.454,9.049,7.61,4.918-4.131,8.064,4.131,8.064-7.61,4.918-.454,9.049-9.049.454-4.918,7.61-8.064-4.131-8.064,4.131-4.918-7.61-9.049-.454-.454-9.049-7.61-4.918,4.131-8.064-4.131-8.064,7.61-4.918.454-9.049,9.049-.454,4.918-7.61Z" transform="translate(-218.833 -246.023)" fill="#3a3757"/>
        <path id="Path_49081" data-name="Path 49081" d="M252.283,255.419l7.471-3.827,4.556,7.05,8.383.421.421,8.384,7.05,4.556-3.827,7.471,3.827,7.471-7.05,4.556-.421,8.383-8.383.421-4.556,7.05-7.471-3.827-7.471,3.827-4.556-7.05-8.384-.421-.421-8.383-7.05-4.556,3.827-7.471L224.4,272l7.05-4.556.421-8.384,8.384-.421,4.556-7.05Z" transform="translate(-216.619 -243.808)" fill="#211f33"/>
      </g>
      <path id="Path_49090" data-name="Path 49090" d="M-2.078-3.151,3.8-8.746c3.049-2.86,3.646-4.809,3.646-6.947,0-3.9-3.08-6.318-7.858-6.318-3.615,0-6.664,1.352-8.361,3.646l2.86,2.2A6.21,6.21,0,0,1-.758-18.458c2.7,0,4.086,1.163,4.086,3.175,0,1.226-.377,2.515-2.515,4.558l-8.738,8.3V.307H8.3V-3.151Z" transform="translate(35.287 46.361)" fill="#a2a5d3"/>
    </g>
    <path id="Path_49166" data-name="Path 49166" d="M.144-12.6v1.96H2.806V-.01H5.144V-12.6ZM10.828-1.988l3.363-3.2c1.745-1.637,2.086-2.752,2.086-3.975,0-2.23-1.763-3.615-4.5-3.615A5.814,5.814,0,0,0,7-10.694L8.633-9.435a3.553,3.553,0,0,1,2.95-1.313c1.547,0,2.338.665,2.338,1.817,0,.7-.216,1.439-1.439,2.608l-5,4.748V-.01h9.281V-1.988Zm8.867,2.1A1.463,1.463,0,0,0,21.17-1.377,1.441,1.441,0,0,0,19.695-2.87,1.441,1.441,0,0,0,18.22-1.377,1.463,1.463,0,0,0,19.695.116ZM27.717.17c3,0,5.27-2.338,5.27-6.475s-2.266-6.475-5.27-6.475c-2.986,0-5.252,2.338-5.252,6.475S24.731.17,27.717.17Zm0-2.032c-1.709,0-2.9-1.4-2.9-4.443s1.187-4.443,2.9-4.443c1.727,0,2.914,1.4,2.914,4.443S29.443-1.862,27.717-1.862ZM39.821.17c3,0,5.27-2.338,5.27-6.475s-2.266-6.475-5.27-6.475c-2.986,0-5.252,2.338-5.252,6.475S36.836.17,39.821.17Zm0-2.032c-1.709,0-2.9-1.4-2.9-4.443s1.187-4.443,2.9-4.443c1.727,0,2.914,1.4,2.914,4.443S41.548-1.862,39.821-1.862ZM51.926.17c3,0,5.27-2.338,5.27-6.475s-2.266-6.475-5.27-6.475c-2.986,0-5.252,2.338-5.252,6.475S48.94.17,51.926.17Zm0-2.032c-1.709,0-2.9-1.4-2.9-4.443s1.187-4.443,2.9-4.443c1.727,0,2.914,1.4,2.914,4.443S53.653-1.862,51.926-1.862Zm18.49-4.532H68.1c0,2.788-1.511,4.425-4.6,4.425h-.773V-5.783L67.3-8.212V-9.525l-4.586,2.41V-8.355l4.586-2.41V-12.1L62.718-9.668V-12.6h-2.3v4.137L58.527-7.456v1.313l1.889-.989v1.241L58.527-4.9v1.331l1.889-1.007V-.01h2.572C67.916-.01,70.434-2.42,70.416-6.395Z" transform="translate(-13487.514 -20583.736)" fill="#a2a5d3"/>
  </g>
</svg>
