<svg xmlns="http://www.w3.org/2000/svg" xmlns:xlink="http://www.w3.org/1999/xlink" width="277.262" height="373.246" viewBox="0 0 277.262 373.246">
  <defs>
    <linearGradient id="linear-gradient" x1="0.224" y1="0.471" x2="1" y2="0.481" gradientUnits="objectBoundingBox">
      <stop offset="0" stop-color="#161622"/>
      <stop offset="1" stop-color="#281d28"/>
    </linearGradient>
  </defs>
  <g id="Group_12409" data-name="Group 12409" transform="translate(13296.916 20858.736)">
    <rect id="Rectangle_7373" data-name="Rectangle 7373" width="373.246" height="277.261" transform="translate(-13019.655 -20858.736) rotate(90)" fill="url(#linear-gradient)"/>
    <g id="Group_12412" data-name="Group 12412" transform="translate(-13194.663 -20747.967)">
      <path id="Path_49086" data-name="Path 49086" d="M27.429,57.638l10.624-50.7-15.3,8.4L10.5,0,0,50.958Z" transform="translate(39.501 116.381) rotate(-173)" fill="#a2615f"/>
      <path id="Path_49085" data-name="Path 49085" d="M27.428,0,38.053,50.705l-15.3-8.4L10.5,57.638,0,6.68Z" transform="translate(27.96 59.966) rotate(-7)" fill="#894b49"/>
      <path id="Path_49088" data-name="Path 49088" d="M-14195.924-20009.131l5.2-2.463,10.3,5.049,6.829-10.324,4.71-.383-1.675-4.551h-5.2l-5.656,8.189-9.308-4.309-6.965,3.7Z" transform="translate(14226.862 20082.082)" fill="#773c3a"/>
      <path id="Path_49087" data-name="Path 49087" d="M-14199.356-20010.143l-5.719,2.678-5.721-9.2-3.651-.455,1.7-5.594h4.312l5.348,9.375,2.325-1.164Z" transform="translate(14230.301 20083.064)" fill="#8d4f4d"/>
      <g id="Group_12385" data-name="Group 12385">
        <path id="Path_49079" data-name="Path 49079" d="M260.416,256.536l9.65-4.944,5.885,9.106,10.829.544.544,10.829,9.106,5.885-4.944,9.65,4.944,9.65-9.106,5.885-.544,10.829-10.829.544-5.885,9.106-9.65-4.944-9.65,4.944-5.885-9.106-10.829-.544-.544-10.829-9.106-5.885,4.944-9.65-4.944-9.65,9.106-5.885.544-10.829,10.829-.544,5.885-9.106Z" transform="translate(-224.402 -251.592)" fill="#2c2a43"/>
        <path id="Path_49080" data-name="Path 49080" d="M254.793,255.764l8.143-4.172,4.967,7.685,9.138.459.459,9.138,7.685,4.966-4.172,8.143,4.172,8.143-7.685,4.966-.459,9.138-9.138.459-4.967,7.685-8.143-4.172-8.143,4.172-4.966-7.685-9.138-.459-.459-9.138-7.685-4.966,4.172-8.143L224.4,273.84l7.685-4.966.459-9.138,9.138-.459,4.966-7.685Z" transform="translate(-218.779 -245.968)" fill="#3a3757"/>
        <path id="Path_49081" data-name="Path 49081" d="M252.558,255.457l7.544-3.865,4.6,7.119,8.466.425.425,8.466,7.119,4.6-3.865,7.544,3.865,7.544-7.119,4.6-.425,8.466-8.466.425-4.6,7.119-7.544-3.865-7.544,3.865-4.6-7.119-8.466-.425-.425-8.466-7.119-4.6,3.865-7.544L224.4,272.2l7.119-4.6.425-8.466,8.466-.425,4.6-7.119Z" transform="translate(-216.543 -243.731)" fill="#211f33"/>
      </g>
      <path id="Path_49128" data-name="Path 49128" d="M1.834-12.526l5.4-6.412V-21.7H-7.911v3.46H2.184l-5.047,6v2.825H-.832c3.365,0,4.825,1.3,4.825,3.3,0,2.063-1.746,3.365-4.7,3.365a10.36,10.36,0,0,1-6.5-2.19L-8.99-1.734A13.96,13.96,0,0,0-.642.837C5.326.837,8.151-2.4,8.151-6.146,8.151-9.479,6.024-11.987,1.834-12.526Z" transform="translate(36.249 47.085)" fill="#a2615f"/>
    </g>
    <path id="Path_49167" data-name="Path 49167" d="M6.512-7.78A4.3,4.3,0,0,0,3.148-6.467v-.018c0-2.86,1.493-4.335,3.867-4.335a4.281,4.281,0,0,1,2.392.612l.863-1.763a6.311,6.311,0,0,0-3.309-.809C3.31-12.78.792-10.406.792-6.089.792-2.042,2.806.17,6.242.17c2.572,0,4.6-1.583,4.6-4.083C10.846-6.269,8.994-7.78,6.512-7.78Zm-.4,6.115c-1.673,0-2.608-.935-2.608-2.122A2.29,2.29,0,0,1,6.062-5.945c1.529,0,2.518.827,2.518,2.14A2.185,2.185,0,0,1,6.116-1.665ZM13.652.116a1.463,1.463,0,0,0,1.475-1.493A1.441,1.441,0,0,0,13.652-2.87a1.441,1.441,0,0,0-1.475,1.493A1.463,1.463,0,0,0,13.652.116ZM21.674.17c3,0,5.27-2.338,5.27-6.475s-2.266-6.475-5.27-6.475c-2.986,0-5.252,2.338-5.252,6.475S18.688.17,21.674.17Zm0-2.032c-1.709,0-2.9-1.4-2.9-4.443s1.187-4.443,2.9-4.443c1.727,0,2.914,1.4,2.914,4.443S23.4-1.862,21.674-1.862ZM33.779.17c3,0,5.27-2.338,5.27-6.475s-2.266-6.475-5.27-6.475c-2.986,0-5.252,2.338-5.252,6.475S30.793.17,33.779.17Zm0-2.032c-1.709,0-2.9-1.4-2.9-4.443s1.187-4.443,2.9-4.443c1.727,0,2.914,1.4,2.914,4.443S35.505-1.862,33.779-1.862ZM45.883.17c3,0,5.27-2.338,5.27-6.475s-2.266-6.475-5.27-6.475c-2.986,0-5.252,2.338-5.252,6.475S42.9.17,45.883.17Zm0-2.032c-1.709,0-2.9-1.4-2.9-4.443s1.187-4.443,2.9-4.443c1.727,0,2.914,1.4,2.914,4.443S47.61-1.862,45.883-1.862Zm18.49-4.532h-2.32c0,2.788-1.511,4.425-4.6,4.425h-.773V-5.783l4.586-2.428V-9.525l-4.586,2.41V-8.355l4.586-2.41V-12.1L56.675-9.668V-12.6h-2.3v4.137L52.484-7.456v1.313l1.889-.989v1.241L52.484-4.9v1.331l1.889-1.007V-.01h2.572C61.873-.01,64.391-2.42,64.373-6.395Z" transform="translate(-13190.869 -20586.736)" fill="#a2615f"/>
  </g>
</svg>
