<svg xmlns="http://www.w3.org/2000/svg" width="15.807" height="12.844" viewBox="0 0 15.807 12.844">
  <path id="Path_47970" data-name="Path 47970" d="M15.188,4.695c.01.139.01.279.01.419a9.165,9.165,0,0,1-9.227,9.227v0A9.18,9.18,0,0,1,1,12.885a6.6,6.6,0,0,0,.772.047A6.512,6.512,0,0,0,5.8,11.541,3.247,3.247,0,0,1,2.77,9.289a3.232,3.232,0,0,0,1.464-.056,3.243,3.243,0,0,1-2.6-3.179V6.013A3.222,3.222,0,0,0,3.1,6.419a3.247,3.247,0,0,1-1-4.33A9.2,9.2,0,0,0,8.784,5.477a3.246,3.246,0,0,1,5.526-2.958,6.507,6.507,0,0,0,2.059-.787,3.255,3.255,0,0,1-1.426,1.794,6.449,6.449,0,0,0,1.862-.511,6.588,6.588,0,0,1-1.618,1.68Z" transform="translate(-1 -1.498)" fill="#747377"/>
</svg>
